<?xml version="1.0" encoding="utf-8"?>
<!-- Generator: Adobe Illustrator 23.1.1, SVG Export Plug-In . SVG Version: 6.00 Build 0)  -->
<svg version="1.1" id="Camada_1" xmlns="http://www.w3.org/2000/svg" xmlns:xlink="http://www.w3.org/1999/xlink" x="0px" y="0px"
	 viewBox="0 0 36.2 35.5" style="enable-background:new 0 0 36.2 35.5;" xml:space="preserve">
<style type="text/css">
	.st0{clip-path:url(#SVGID_2_);}
	.st1{fill:#FFFFFF;}
</style>
<g>
	<defs>
		<rect id="SVGID_1_" width="36.2" height="35.5"/>
	</defs>
	<clipPath id="SVGID_2_">
		<use xlink:href="#SVGID_1_"  style="overflow:visible;"/>
	</clipPath>
	<g id="Grupo_31" class="st0">
		<path id="Caminho_58" class="st1" d="M27.7,12.3l-1.3-0.2C27.1,6.8,23.3,2,18,1.4S7.8,4.5,7.2,9.8c0,0.4-0.1,0.8-0.1,1.2v0.6H5.8
			V11c0-6.1,4.9-11,11-11s11,4.9,11,11C27.8,11.4,27.8,11.9,27.7,12.3"/>
		<path id="Caminho_59" class="st1" d="M15.7,4l-0.2-1.3c0.4-0.1,0.9-0.1,1.3-0.1v1.3C16.4,3.9,16.1,3.9,15.7,4"/>
		<path id="Caminho_60" class="st1" d="M10.7,7.3L9.6,6.7c1-1.6,2.5-2.9,4.3-3.6l0.4,1.2C12.8,4.9,11.5,5.9,10.7,7.3"/>
		<path id="Caminho_61" class="st1" d="M13.6,23.9H6.5C2.9,23.9,0,21,0,17.4S2.9,11,6.5,11c1.2,0,2.4,0.3,3.4,1L9.2,13
			c-2.4-1.5-5.6-0.7-7.1,1.7c-1.5,2.4-0.7,5.6,1.7,7.1c0.8,0.5,1.8,0.8,2.7,0.8h7.1V23.9z"/>
		<path id="Caminho_62" class="st1" d="M28.4,23.9h-5.8v-1.3h5.8c3.6,0,6.5-2.9,6.5-6.5c0-3.6-2.9-6.5-6.5-6.5c-0.4,0-0.9,0-1.3,0.1
			l-0.3-1.3c4.2-0.9,8.3,1.8,9.2,6c0.9,4.2-1.8,8.3-6,9.2C29.5,23.9,29,23.9,28.4,23.9"/>
		<path id="Caminho_63" class="st1" d="M33.6,16.2h-1.3c0-0.9-0.3-1.8-0.9-2.5l1-0.8C33.2,13.7,33.6,14.9,33.6,16.2"/>
		<path id="Caminho_64" class="st1" d="M18.1,35.5c-0.4,0-0.7-0.2-1-0.4L12,29.9c-0.2-0.2-0.3-0.5-0.4-0.9c0-0.7,0.6-1.3,1.3-1.3
			h1.9V14.9h1.3v14.2h-3.2l5.1,5.1l5.2-5.2l-3.3,0v-9.7h1.3v8.4h1.9c0.7,0,1.3,0.6,1.3,1.3c0,0.3-0.1,0.6-0.3,0.9L19,35.1
			C18.8,35.4,18.4,35.5,18.1,35.5"/>
		<rect id="Retângulo_109" x="20" y="16.8" class="st1" width="1.3" height="1.3"/>
	</g>
</g>
</svg>
