<?xml version="1.0" encoding="utf-8"?>
<!-- Generator: Adobe Illustrator 23.1.1, SVG Export Plug-In . SVG Version: 6.00 Build 0)  -->
<svg version="1.1" id="Camada_1" xmlns="http://www.w3.org/2000/svg" xmlns:xlink="http://www.w3.org/1999/xlink" x="0px" y="0px"
	 viewBox="0 0 72.4 62.4" style="enable-background:new 0 0 72.4 62.4;" xml:space="preserve">
<style type="text/css">
	.st0{clip-path:url(#SVGID_2_);}
	.st1{fill:#FFFFFF;}
</style>
<g>
	<defs>
		<rect id="SVGID_1_" width="72.4" height="62.4"/>
	</defs>
	<clipPath id="SVGID_2_">
		<use xlink:href="#SVGID_1_"  style="overflow:visible;"/>
	</clipPath>
	<g id="Grupo_35" class="st0">
		<path id="Caminho_65" class="st1" d="M43,51.2c-0.8,0-1.5-0.3-2-0.8l-2.7-2.8l1.8-1.7l2.7,2.8c0.1,0.1,0.2,0.1,0.4,0.1
			c0.1,0,0.2-0.1,0.3-0.2l2.8-7.6l2.3,0.9l-2.8,7.6c-0.3,0.9-1.1,1.6-2.1,1.8C43.5,51.2,43.3,51.2,43,51.2"/>
		<path id="Caminho_66" class="st1" d="M39.3,28.7c-0.8,0-1.5-0.3-2-0.8l-2.7-2.8l1.8-1.7l2.7,2.8c0.1,0.1,0.2,0.1,0.4,0.1
			c0.1,0,0.2-0.1,0.3-0.2l2.8-7.6l2.3,0.9L42,26.8c-0.3,0.9-1.1,1.6-2.1,1.8C39.7,28.7,39.5,28.7,39.3,28.7"/>
		
			<rect id="Retângulo_117" x="50.2" y="43.1" transform="matrix(0.9883 -0.1525 0.1525 0.9883 -6.0866 9.3978)" class="st1" width="16.1" height="2.5"/>
		
			<rect id="Retângulo_118" x="51.1" y="37.7" transform="matrix(0.9883 -0.1525 0.1525 0.9883 -5.2602 9.3249)" class="st1" width="14.2" height="2.5"/>
		
			<rect id="Retângulo_119" x="52" y="26.1" transform="matrix(0.9883 -0.1525 0.1525 0.9883 -3.5117 8.8078)" class="st1" width="7.3" height="2.5"/>
		
			<rect id="Retângulo_120" x="52.3" y="20.4" transform="matrix(0.9884 -0.1521 0.1521 0.9884 -2.6341 8.9073)" class="st1" width="9.3" height="2.5"/>
		<path id="Caminho_67" class="st1" d="M10.1,26.1c0-0.6-0.1-1.2-0.1-1.8c0-5.4,1.8-10.6,5-14.8l2,1.5c-2.9,3.8-4.5,8.5-4.5,13.3
			c0,0.5,0,1.1,0.1,1.6L10.1,26.1z"/>
		<path id="Caminho_68" class="st1" d="M62.6,57.4l-1.4-6.9c-0.4-1.4,0.4-2.9,1.8-3.3c0,0,0.1,0,0.1,0l7.7-1.4l0.4,2.5l-7.6,1.3
			c0,0.1,0,0.3,0,0.4l1.4,6.9L62.6,57.4z"/>
		<path id="Caminho_69" class="st1" d="M34.3,42.4c-4.4-0.1-8.7-1.7-12.1-4.5l1.6-1.9c2.9,2.5,6.6,3.8,10.5,3.9
			c8.6,0,15.6-7,15.6-15.6c0-8.6-7-15.6-15.6-15.6s-15.6,7-15.6,15.6c0,2.7,0.7,5.3,2,7.6l-2.2,1.2c-4.9-8.7-1.8-19.8,6.9-24.7
			s19.8-1.8,24.7,6.9s1.8,19.8-6.9,24.7C40.5,41.6,37.4,42.4,34.3,42.4"/>
		<path id="Caminho_70" class="st1" d="M37.7,62.4c-1.5,0-2.8-1.1-3.1-2.5l-2.8-18.5l2.5-0.4l2.8,18.5c0.1,0.3,0.3,0.4,0.5,0.5
			c1.4-0.2,17.1-2.6,26.4-4c0.9-0.1,1.7-0.6,2.3-1.3L69,51c0.6-0.9,1-2,0.9-3.1l-6.3-36.2c-0.1-0.3-0.3-0.5-0.5-0.5
			c-1.1,0.2-12.2,1.9-16.6,2.5l-0.4-2.5C62.9,8.7,62.9,8.7,63,8.7c1.5,0,2.8,1.1,3.1,2.5l6.3,36.2c0.2,1.8-0.3,3.6-1.3,5l-2.7,3.5
			c-0.9,1.2-2.3,2.1-3.9,2.3C37.9,62.4,37.8,62.4,37.7,62.4"/>
		<path id="Caminho_71" class="st1" d="M30.5,33.9l-3-16.5c0-0.2-0.1-0.4-0.1-0.5c0-1.5,1.1-2.9,2.6-3.1l8.4-1.4l0.4,2.5l-8.4,1.4
			c-0.3,0-0.5,0.3-0.5,0.6l3,16.6L30.5,33.9z"/>
		<path id="Caminho_72" class="st1" d="M19.4,59.9c-3.1,0-5.6-2.2-5.6-5c0-0.9,0.3-1.8,0.8-2.6l5-7.5c1.1-1.6,2.9-2.5,4.8-2.4
			c3.1,0,5.6,2.2,5.6,5c0,0.9-0.3,1.8-0.8,2.5l-5,7.5C23.1,59,21.3,60,19.4,59.9 M24.3,44.9c-1.1,0-2.1,0.5-2.8,1.3l-5,7.5
			c-0.2,0.3-0.4,0.8-0.4,1.2c0,1.4,1.4,2.5,3.1,2.5c1.1,0,2.1-0.5,2.8-1.3l5-7.5c0.2-0.3,0.4-0.7,0.4-1.2
			C27.5,46.1,26.1,45,24.3,44.9"/>
		<path id="Caminho_73" class="st1" d="M12.4,62.4H0v-2.5h12.4c1.4,0,2.8-0.3,4.1-0.9l4.4-1.9l1,2.3l-4.4,1.9
			C15.9,62.1,14.2,62.4,12.4,62.4"/>
		<path id="Caminho_74" class="st1" d="M13.7,57.4c-0.3,0-0.6,0-0.8-0.1c-2-0.3-3.6-1.9-4.1-3.9c-0.3-1.6,0.3-3.3,1.5-4.4l0.1-0.1
			c3.1-3.2,9-9.1,11.7-12.9c0.3-0.3,0.3-0.8,0.2-1.2c-0.4-1-1.6-1.4-2.5-1c-0.3,0.1-0.6,0.3-0.8,0.6c0,0-1.9,2.6-2.6,3.5
			c-1,1.3-2.4,2.3-8.8,6.7c-1.2,0.8-2.4,1.8-3.5,2.9l-1.6,1.6l-1.8-1.8l1.6-1.6c1.2-1.2,2.5-2.2,3.8-3.2c6-4,7.4-5.1,8.2-6.1
			c0.7-0.8,2.6-3.4,2.6-3.4c1-1.3,2.7-2,4.4-1.7c1.5,0.3,2.7,1.3,3.3,2.7c0.5,1.2,0.3,2.6-0.5,3.6c-2.8,3.9-8.8,9.9-12,13.2
			l-0.1,0.1c-1,1-1,1.6-0.9,2.2c0.2,1,1,1.7,2,1.9c0.5,0.1,0.9,0,1.3-0.1l0.9,2.3C15,57.3,14.3,57.4,13.7,57.4"/>
		
			<rect id="Retângulo_121" x="24.3" y="40.6" transform="matrix(0.6119 -0.7909 0.7909 0.6119 -22.7537 37.4047)" class="st1" width="4.8" height="2.5"/>
		<path id="Caminho_75" class="st1" d="M39.6,3.1c-2-0.4-3.9-0.6-5.9-0.6V0c2.2,0,4.4,0.2,6.5,0.7L39.6,3.1z"/>
		<path id="Caminho_76" class="st1" d="M25.7,4.3l-1-2.3c1.1-0.5,2.2-0.8,3.3-1.1l0.6,2.4C27.7,3.5,26.7,3.8,25.7,4.3"/>
		<path id="Caminho_77" class="st1" d="M20.1,7.8l-1.7-1.8c1-0.9,2-1.7,3.1-2.5l1.4,2.1C21.9,6.2,20.9,7,20.1,7.8"/>
	</g>
</g>
</svg>
