<?xml version="1.0" encoding="utf-8"?>
<!-- Generator: Adobe Illustrator 23.1.1, SVG Export Plug-In . SVG Version: 6.00 Build 0)  -->
<svg version="1.1" id="Camada_1" xmlns="http://www.w3.org/2000/svg" xmlns:xlink="http://www.w3.org/1999/xlink" x="0px" y="0px"
	 viewBox="0 0 72.4 62.4" style="enable-background:new 0 0 72.4 62.4;" xml:space="preserve">
<style type="text/css">
	.st0{fill:#FFFFFF;}
	.st1{clip-path:url(#SVGID_2_);}
</style>
<g id="Grupo_39" transform="translate(0 -0.049)">
	<path id="Caminho_78" class="st0" d="M25.9,34.1v7.7h-7.6v7.7h-7.6v9.7h36.3v-1.9H12.5v-5.8h7.6v-7.7h7.6V36h26.8v21.3h-1.9v1.9
		h3.8V34.1H25.9z"/>
	<rect id="Retângulo_123" x="48.7" y="57.5" class="st0" width="1.7" height="1.8"/>
	<path id="Caminho_79" class="st0" d="M32.6,58.3h-1.9v-8.7h8.6v-7.7h7.6v-6.8h1.9v8.7h-7.6v7.7h-8.6V58.3z"/>
	<rect id="Retângulo_124" x="19.3" y="49.6" class="st0" width="12.1" height="1.8"/>
	<rect id="Retângulo_125" x="27.1" y="41.7" class="st0" width="13" height="1.8"/>
	<rect id="Retângulo_126" x="26.2" y="46.1" class="st0" width="1.7" height="1.8"/>
	<rect id="Retângulo_127" x="21.9" y="46.1" class="st0" width="1.7" height="1.8"/>
	<rect id="Retângulo_128" x="18.4" y="53.1" class="st0" width="1.7" height="2.6"/>
	<rect id="Retângulo_129" x="14.1" y="53.1" class="st0" width="2.6" height="2.6"/>
	<rect id="Retângulo_130" x="33.1" y="38.2" class="st0" width="2.6" height="1.8"/>
	<rect id="Retângulo_131" x="29.7" y="38.2" class="st0" width="1.7" height="1.8"/>
	<path id="Caminho_80" class="st0" d="M39.3,35.1h-1.9V7h-1.9v28h-1.9v-30h5.7V35.1z"/>
	<rect id="Retângulo_132" x="43.1" y="20.6" class="st0" width="1.9" height="7.2"/>
	<g id="Grupo_38">
		<g>
			<defs>
				<rect id="SVGID_1_" x="10.6" y="2.2" width="52" height="57"/>
			</defs>
			<clipPath id="SVGID_2_">
				<use xlink:href="#SVGID_1_"  style="overflow:visible;"/>
			</clipPath>
			<g id="Grupo_37" class="st1">
				<path id="Caminho_81" class="st0" d="M59.8,30.2H45.5c-1.3,0-2.4-1.1-2.4-2.4c0-1,0.6-1.8,1.4-2.2c0,0,3.7-1.6,4.9-2.2
					c0.2-0.1,0.3-0.3,0.3-0.4c0-0.2-0.2-0.4-0.4-0.5c-2.5-1.4-7.1-1.2-10.7,0.5l-0.8-1.7c4.1-2,9.4-2.1,12.4-0.4
					c0.8,0.4,1.3,1.3,1.4,2.2c0,1-0.6,1.8-1.5,2.2c-1.3,0.6-4.9,2.2-4.9,2.2c-0.2,0.1-0.3,0.2-0.3,0.4c0,0.3,0.2,0.5,0.5,0.5h11
					l-3.2-5.8l3.2-5.8h-5.8v-1.9h9l-4.3,7.7L59.8,30.2z"/>
				<path id="Caminho_82" class="st0" d="M51.7,23h-1.9V10.4c0-0.2-0.2-0.4-0.4-0.5c-2.5-1.4-7.1-1.2-10.7,0.5l-0.8-1.7
					c4.1-2,9.4-2.1,12.4-0.4c0.8,0.4,1.3,1.3,1.4,2.2L51.7,23z"/>
				<rect id="Retângulo_133" x="44.4" y="2.2" class="st0" width="1.7" height="1.8"/>
				<rect id="Retângulo_134" x="48.7" y="3.1" class="st0" width="1.7" height="1.8"/>
				<rect id="Retângulo_135" x="27.9" y="18.9" class="st0" width="1.7" height="1.8"/>
				<rect id="Retângulo_136" x="28.8" y="13.6" class="st0" width="1.7" height="1.8"/>
				<rect id="Retângulo_137" x="30.5" y="28.5" class="st0" width="1.7" height="1.8"/>
				<rect id="Retângulo_138" x="30.5" y="9.2" class="st0" width="1.7" height="1.8"/>
				<rect id="Retângulo_139" x="28.8" y="23.3" class="st0" width="1.7" height="1.8"/>
				<rect id="Retângulo_140" x="53.9" y="4.9" class="st0" width="1.7" height="1.8"/>
				<rect id="Retângulo_141" x="60" y="18.9" class="st0" width="2.6" height="1.8"/>
				<rect id="Retângulo_142" x="57.4" y="9.2" class="st0" width="1.7" height="1.8"/>
				<rect id="Retângulo_143" x="59.1" y="23.3" class="st0" width="1.7" height="1.8"/>
			</g>
		</g>
	</g>
</g>
</svg>
