<?xml version="1.0" encoding="utf-8"?>
<!-- Generator: Adobe Illustrator 23.1.1, SVG Export Plug-In . SVG Version: 6.00 Build 0)  -->
<svg version="1.1" id="Camada_1" xmlns="http://www.w3.org/2000/svg" xmlns:xlink="http://www.w3.org/1999/xlink" x="0px" y="0px"
	 viewBox="0 0 72.4 62.4" style="enable-background:new 0 0 72.4 62.4;" xml:space="preserve">
<style type="text/css">
	.st0{clip-path:url(#SVGID_2_);}
	.st1{fill:#FFFFFF;}
</style>
<g id="Grupo_41" transform="translate(0 0)">
	<g>
		<defs>
			<rect id="SVGID_1_" x="8.9" y="3.5" width="53.5" height="54.3"/>
		</defs>
		<clipPath id="SVGID_2_">
			<use xlink:href="#SVGID_1_"  style="overflow:visible;"/>
		</clipPath>
		<g id="Grupo_40" transform="translate(0 0)" class="st0">
			<path id="Caminho_83" class="st1" d="M38.9,20.9c-0.5,0-1-0.2-1.3-0.6l-0.1-0.1l-3.8-4.8c-0.3-0.4-0.5-0.8-0.5-1.3
				c0-1.1,0.8-1.9,1.9-1.9h0.9V5.5c0-1.1,0.8-1.9,1.9-1.9h15.9v1.9H37.9v8.7h-2.8c0,0,0,0,0.1,0.1l3.7,4.7l3.7-4.8
				c0,0,0.1-0.1,0.1-0.1l-2.8,0V7.4h16v1.9H41.7v2.9h0.9c1,0,1.9,0.9,1.9,1.9c0,0.5-0.2,0.9-0.5,1.3l-3.8,4.9
				C39.9,20.7,39.4,20.9,38.9,20.9"/>
			<path id="Caminho_84" class="st1" d="M51.1,30.6c-0.5,0-0.9-0.2-1.2-0.5l-4.8-4c-0.7-0.8-0.7-2,0-2.7c0,0,0,0,0,0l0.1-0.1
				l4.7-3.9c0.3-0.3,0.8-0.5,1.2-0.5c1,0,1.9,0.9,1.9,1.9c0,0,0,0,0,0v1h2.8V18h1.9v5.8h-6.6V21c0,0,0,0-0.1,0.1l-4.6,3.8l4.6,3.8
				c0,0,0.1,0.1,0.1,0.1l0-2.9h8.4v-1.9h1.9v1.9c0,1.1-0.8,1.9-1.9,1.9H53v1C53,29.8,52.1,30.6,51.1,30.6"/>
			<rect id="Retângulo_145" x="55.6" y="3.5" class="st1" width="2.5" height="1.7"/>
			<rect id="Retângulo_146" x="59.7" y="3.5" class="st1" width="1.6" height="1.7"/>
			<rect id="Retângulo_147" x="59.7" y="19.6" class="st1" width="1.6" height="2.5"/>
			<path id="Caminho_85" class="st1" d="M55.8,48.1c-2.1,0-3.8-1.7-3.8-3.9c0-2.1,1.7-3.9,3.8-3.9c2.1,0,3.8,1.7,3.8,3.9l0,0
				C59.5,46.3,57.8,48.1,55.8,48.1 M55.8,42.2c-1,0-1.9,0.9-1.9,1.9c0,1.1,0.8,1.9,1.9,1.9c1,0,1.9-0.9,1.9-1.9
				C57.6,43.1,56.8,42.2,55.8,42.2"/>
			<path id="Caminho_86" class="st1" d="M13.6,29.7c-2.1,0-3.8-1.7-3.8-3.9s1.7-3.9,3.8-3.9s3.8,1.7,3.8,3.9l0,0
				C17.3,27.9,15.6,29.7,13.6,29.7 M13.6,23.8c-1,0-1.9,0.9-1.9,1.9s0.8,1.9,1.9,1.9s1.9-0.9,1.9-1.9C15.4,24.7,14.6,23.8,13.6,23.8
				"/>
			<path id="Caminho_87" class="st1" d="M56.7,41.3h-1.9v-4.8h-5.6v-1.9h7.5V41.3z"/>
			<rect id="Retângulo_148" x="45.8" y="34.8" class="st1" width="1.6" height="1.7"/>
			<rect id="Retângulo_149" x="60.5" y="55.1" class="st1" width="1.6" height="1.7"/>
			<rect id="Retângulo_150" x="60.5" y="48.4" class="st1" width="1.6" height="4.2"/>
			<rect id="Retângulo_151" x="10.5" y="46.7" class="st1" width="5.7" height="2.5"/>
			<rect id="Retângulo_152" x="17.9" y="46.7" class="st1" width="2.5" height="2.5"/>
			<path id="Caminho_88" class="st1" d="M17.3,44.2c-1,0-1.9-0.9-1.9-1.9v-1H8.9v-1.9h8.4v2.9c0,0,0,0,0.1-0.1l4.6-3.8l-4.6-3.8
				c0,0-0.1-0.1-0.1-0.1l0,2.9h-3.8v-1.9h1.9v-1c0-1.1,0.8-1.9,1.9-1.9c0.5,0,0.9,0.2,1.2,0.5l4.8,4c0.7,0.8,0.7,2,0,2.7
				c0,0,0,0,0,0l-0.1,0.1l-4.7,3.9C18.2,44,17.8,44.2,17.3,44.2"/>
			<rect id="Retângulo_153" x="9.7" y="35.7" class="st1" width="1.6" height="1.7"/>
			<path id="Caminho_89" class="st1" d="M14.5,22.9h-1.9V9.3c0-1.1,0.8-1.9,1.9-1.9h12.2c1,0,1.9,0.9,1.9,1.9v4.8h-1.9V9.3H14.5
				V22.9z"/>
			<rect id="Retângulo_154" x="26.9" y="16.2" class="st1" width="1.6" height="1.7"/>
			<rect id="Retângulo_155" x="13" y="3.5" class="st1" width="4.9" height="1.7"/>
			<rect id="Retângulo_156" x="20.3" y="3.5" class="st1" width="1.6" height="1.7"/>
			<rect id="Retângulo_157" x="47.4" y="12" class="st1" width="3.3" height="2.5"/>
			<rect id="Retângulo_158" x="56.4" y="29.7" class="st1" width="4.1" height="1.7"/>
			<path id="Caminho_90" class="st1" d="M34.7,48.1c-4.9,0-8.9-4.1-8.9-9.2v-8.1h1.9v8.1c0,4,3.2,7.3,7,7.3c4.2,0,7-2.9,7-7.3v-4.4
				h1.9v4.4C43.6,44.3,39.9,48.1,34.7,48.1"/>
			<path id="Caminho_91" class="st1" d="M43.6,35.5h-1.9v-3.9c0-3.7-2.9-6.8-6.6-6.8h-2.8c-2.5,0.1-4.9-1-6.5-3.1
				c-0.6,0.9-0.9,2-1,3.1c0,2.8,1.5,5.8,4.7,5.8v1.9c-3.8,0-6.6-3.3-6.6-7.7c0-2.4,1.8-5.1,2-5.4l0.8-1.2l0.7,1.2
				c1.1,2.2,3.4,3.5,5.8,3.4h2.8c4.7,0,8.4,3.9,8.4,8.7L43.6,35.5z"/>
			<path id="Caminho_92" class="st1" d="M34.7,54.8c-2.9,0-5.2-1.7-5.2-3.9h1.9c0,0.9,1.3,1.9,3.3,1.9s3.3-1,3.3-1.9h1.9
				C39.8,53.1,37.6,54.8,34.7,54.8"/>
			<path id="Caminho_93" class="st1" d="M49.2,57.8c-0.2-2.3-2.3-4.4-4.7-4.8L38,51.8V46h1.9v4.1l5,0.9c3.3,0.6,6,3.4,6.3,6.6
				L49.2,57.8z"/>
			<path id="Caminho_94" class="st1" d="M21.1,57.8l-1.9-0.2c0.3-3.5,2.4-6,5.3-6.6l5-0.9v-4.3h1.9v5.9L24.9,53
				C22.7,53.4,21.3,55.2,21.1,57.8"/>
		</g>
	</g>
</g>
</svg>
