<?xml version="1.0" encoding="utf-8"?>
<!-- Generator: Adobe Illustrator 23.1.1, SVG Export Plug-In . SVG Version: 6.00 Build 0)  -->
<svg version="1.1" id="Camada_1" xmlns="http://www.w3.org/2000/svg" xmlns:xlink="http://www.w3.org/1999/xlink" x="0px" y="0px"
	 viewBox="0 0 72.4 62.4" style="enable-background:new 0 0 72.4 62.4;" xml:space="preserve">
<style type="text/css">
	.st0{clip-path:url(#SVGID_2_);}
	.st1{fill:#FFFFFF;}
</style>
<g id="Grupo_43" transform="translate(0 0)">
	<g>
		<defs>
			<rect id="SVGID_1_" x="5.5" y="1.7" width="61.6" height="58.7"/>
		</defs>
		<clipPath id="SVGID_2_">
			<use xlink:href="#SVGID_1_"  style="overflow:visible;"/>
		</clipPath>
		<g id="Grupo_42" transform="translate(0 0)" class="st0">
			<path id="Caminho_95" class="st1" d="M26.8,38.1h-2.1V12.6c0-1.3,0.8-2.5,2-3l15.9-6.4c1.6-0.7,3.5,0.1,4.1,1.8
				c0.2,0.4,0.2,0.8,0.2,1.2v8.5h-2.1V6.3c0-0.6-0.5-1.1-1.1-1.1c-0.1,0-0.3,0-0.4,0.1l-15.9,6.4c-0.4,0.2-0.7,0.5-0.7,1L26.8,38.1z
				"/>
			
				<rect id="Retângulo_160" x="29.7" y="14.4" transform="matrix(0.9287 -0.3709 0.3709 0.9287 -3.1951 14.3753)" class="st1" width="12.2" height="2.1"/>
			
				<rect id="Retângulo_161" x="30" y="19.5" transform="matrix(0.9287 -0.3709 0.3709 0.9287 -5.2387 13.947)" class="st1" width="7.3" height="2.1"/>
			
				<rect id="Retângulo_162" x="39.6" y="16.8" transform="matrix(0.9287 -0.3709 0.3709 0.9287 -3.7167 16.3184)" class="st1" width="1.9" height="2.1"/>
			<path id="Caminho_96" class="st1" d="M49.1,41.3H27.8c-1.8,0-3.2-1.4-3.2-3.2c0-1.5,1-2.7,2.4-3.1l17-4.4c0.5-0.1,0.8-0.5,0.8-1
				V13.7h2.1v15.9c0,1.4-1,2.7-2.4,3.1l-17,4.4c-0.6,0.1-0.9,0.7-0.8,1.3c0.1,0.5,0.5,0.8,1,0.8h21.2c0.6,0,1.1-0.5,1.1-1.1
				c0,0,0,0,0,0V13.7c0-0.6-0.5-1.1-1.1-1.1v-2.1c1.8,0,3.2,1.4,3.2,3.2v24.4C52.2,39.8,50.8,41.3,49.1,41.3"/>
			
				<rect id="Retângulo_163" x="56.3" y="3" transform="matrix(0.7071 -0.7071 0.7071 0.7071 14.2715 42.6652)" class="st1" width="4.7" height="2.1"/>
			<rect id="Retângulo_164" x="59.7" y="11.6" class="st1" width="4.2" height="2.1"/>
			
				<rect id="Retângulo_165" x="13" y="1.8" transform="matrix(0.7071 -0.7071 0.7071 0.7071 1.1865 11.1516)" class="st1" width="2.1" height="4.6"/>
			<rect id="Retângulo_166" x="8.7" y="11.6" class="st1" width="4.2" height="2.1"/>
			<path id="Caminho_97" class="st1" d="M61.8,60.4H10.9c-2.9,0-5.3-2.4-5.3-5.3c0-1.2,0.9-2.1,2.1-2.1H65c1.2,0,2.1,1,2.1,2.1
				C67.1,58,64.7,60.4,61.8,60.4 M7.7,55.1c0,1.8,1.4,3.2,3.2,3.2h50.9c1.8,0,3.2-1.4,3.2-3.2L7.7,55.1z"/>
			<path id="Caminho_98" class="st1" d="M65,55.1l-7.4-7.9c-0.7-0.8-1.1-1.8-1.1-2.9V19c0-1.2-1-2.1-2.1-2.1v-2.1
				c2.3,0,4.2,1.9,4.2,4.2v25.3c0,0.5,0.2,1.1,0.6,1.4l7.4,7.9L65,55.1z"/>
			<path id="Caminho_99" class="st1" d="M7.7,55.1l-1.6-1.4l7.4-7.9c0.4-0.4,0.6-0.9,0.6-1.4V19c0-2.3,1.9-4.2,4.2-4.2h4.2v2.1h-4.2
				c-1.2,0-2.1,1-2.1,2.1v25.3c0,1.1-0.4,2.1-1.1,2.9L7.7,55.1z"/>
			<rect id="Retângulo_167" x="14.8" y="44.5" class="st1" width="43" height="2.1"/>
			<rect id="Retângulo_168" x="16.2" y="48.7" class="st1" width="5.3" height="2.1"/>
			<rect id="Retângulo_169" x="24.7" y="48.7" class="st1" width="5.3" height="2.1"/>
			<rect id="Retângulo_170" x="34.2" y="48.7" class="st1" width="5.3" height="2.1"/>
			<rect id="Retângulo_171" x="42.7" y="48.7" class="st1" width="5.3" height="2.1"/>
			<rect id="Retângulo_172" x="51.2" y="48.7" class="st1" width="5.3" height="2.1"/>
		</g>
	</g>
</g>
</svg>
