<?xml version="1.0" encoding="utf-8"?>
<!-- Generator: Adobe Illustrator 23.1.1, SVG Export Plug-In . SVG Version: 6.00 Build 0)  -->
<svg version="1.1" id="Camada_1" xmlns="http://www.w3.org/2000/svg" xmlns:xlink="http://www.w3.org/1999/xlink" x="0px" y="0px"
	 viewBox="0 0 163 27.2" style="enable-background:new 0 0 163 27.2;" xml:space="preserve">
<style type="text/css">
	.st0{fill:#FFFFFF;}
	.st1{fill:#FF3300;}
	.st2{fill:#FF9900;}
	.st3{fill:#666666;}
	.st4{clip-path:url(#SVGID_2_);}
</style>
<g id="Logo" transform="translate(-137 -255)">
	<rect id="Ret창ngulo_72" x="134.8" y="253.4" class="st0" width="168" height="31"/>
	<g id="Grupo_17" transform="translate(139.163 256.622)">
		<rect id="Ret창ngulo_68" x="-2.2" y="-1.6" class="st0" width="24.8" height="27.2"/>
		<path id="Caminho_30" class="st1" d="M15,10.2l-15.6,4.7V24h21.7v-6.3L15,10.2z"/>
		<path id="Caminho_31" class="st2" d="M-0.6,13.4l8.3-8.6l13.4,7.6V-0.1H-0.6V13.4z"/>
		<path id="Caminho_32" class="st3" d="M33,21.2h1.7V9h3.2V7.5h-8.2V9H33L33,21.2z"/>
		<g id="Grupo_18" transform="translate(0 0)">
			<g>
				<defs>
					<rect id="SVGID_1_" x="-2.2" y="-1.6" width="163" height="27.2"/>
				</defs>
				<clipPath id="SVGID_2_">
					<use xlink:href="#SVGID_1_"  style="overflow:visible;"/>
				</clipPath>
				<g id="Grupo_17-2" class="st4">
					<path id="Caminho_33" class="st3" d="M44,16.1c0-3.2-0.7-4.7-3.4-4.7c-3.3,0-3.6,2.3-3.6,5.1c0,4.2,1.6,4.8,3.6,4.8
						s3.3-1,3.3-3.1h-1.7c0.1,0.9-0.7,1.8-1.6,1.8c0,0,0,0,0,0c-1.2,0-1.9-0.5-1.9-3.2H44L44,16.1z M38.6,15.7
						c0-2.7,0.8-3.1,1.8-3.1c1.1,0,1.9,0.3,1.9,3.1H38.6z"/>
					<path id="Caminho_34" class="st3" d="M47.6,15.5c0-1.3,0.4-2.6,2.2-2.6c0.1,0,0.3,0,0.4,0l0.4,0.1v-1.6c-1.5,0-2.3,0.2-2.9,1.6
						h0v-1.4H46v9.6h1.5L47.6,15.5z"/>
					<path id="Caminho_35" class="st3" d="M52,21.2h1.5v-5.7c0-1.3,0.2-2.8,1.9-2.8c1.3,0,1.7,0.8,1.7,1.9v6.6h1.5v-6.6
						c0-1.9-0.5-3.1-2.5-3.1c-1.1-0.1-2.1,0.5-2.6,1.4h-0.1v-1.2h-1.6c0.1,0.7,0.1,1.3,0.1,2L52,21.2z"/>
					<rect id="Ret창ngulo_69" x="61.1" y="11.6" class="st3" width="1.6" height="9.6"/>
					<rect id="Ret창ngulo_70" x="61" y="7.5" class="st3" width="1.7" height="1.7"/>
					<path id="Caminho_36" class="st3" d="M67.7,21.4c1,0,1.9-0.5,2.4-1.3h0.1v1.2h1.6c-0.1-0.7-0.1-1.3-0.1-2v-7.6h-1.5V18
						c0.1,1.1-0.6,2.1-1.7,2.2c-0.1,0-0.1,0-0.2,0c-1.1,0-1.6-0.8-1.6-1.9v-6.6h-1.5v7.3c-0.1,1.2,0.8,2.3,2,2.5
						C67.4,21.4,67.6,21.4,67.7,21.4"/>
					<path id="Caminho_37" class="st3" d="M74.1,21.2h1.5v-6.4c0-0.5,0.1-1,0.4-1.4c0.3-0.4,0.8-0.6,1.3-0.6c1.2,0,1.5,0.9,1.5,1.9
						v6.6h1.5v-6.5c0-0.6,0.2-1.2,0.5-1.7c0.3-0.3,0.7-0.4,1.2-0.4c1.2,0,1.5,0.9,1.5,1.9v6.6h1.5v-7.3c0-2.3-1.6-2.5-2.6-2.5
						c-0.9-0.1-1.8,0.4-2.3,1.2c-0.4-0.8-1.3-1.3-2.2-1.2c-1-0.1-2,0.4-2.4,1.4h0v-1.2H74c0.1,0.7,0.1,1.3,0.1,2L74.1,21.2z"/>
					<path id="Caminho_38" class="st2" d="M89.9,7.5h1.7v8.8c0,3,0.9,3.8,2.6,3.8s2.6-0.8,2.6-3.8V7.5h1.7v8.7
						c0,3.8-1.4,5.3-4.3,5.3s-4.3-1.5-4.3-5.3L89.9,7.5z"/>
					<path id="Caminho_39" class="st2" d="M105.9,21.2v-6.7c0-1-0.4-1.9-1.7-1.9c-1.7,0-2,1.5-2,2.8v5.7h-1.6v-7.6
						c0-0.7,0-1.3-0.1-2h1.7v1.2h0.1c0.5-1,1.5-1.5,2.6-1.4c2.1,0,2.6,1.2,2.6,3.1v6.7H105.9z"/>
					<path id="Caminho_40" class="st2" d="M109.3,7.5h1.7v1.7h-1.7V7.5z M110.9,21.2h-1.6v-9.6h1.6V21.2z"/>
					<path id="Caminho_41" class="st2" d="M112.5,11.6h1.7l2.1,8.1h0l2.3-8.1h1.6l-3,9.6h-2L112.5,11.6z"/>
					<path id="Caminho_42" class="st2" d="M122.8,17c0,2.7,0.7,3.2,1.9,3.2c1,0,1.7-0.8,1.7-1.8c0,0,0,0,0-0.1h1.7
						c0,2.1-1.3,3.1-3.3,3.1c-2,0-3.6-0.6-3.6-4.8c0-2.8,0.3-5.1,3.6-5.1c2.7,0,3.4,1.5,3.4,4.7V17L122.8,17z M126.6,15.8
						c0-2.8-0.8-3.1-1.9-3.1c-1,0-1.8,0.5-1.8,3.1H126.6z"/>
					<path id="Caminho_43" class="st2" d="M131.7,13.1L131.7,13.1c0.7-1.5,1.5-1.6,3-1.6v1.6c-0.1,0-0.3,0-0.4-0.1
						c-0.1,0-0.3,0-0.4,0c-1.7,0-2.2,1.3-2.2,2.6v5.7h-1.6v-9.6h1.6L131.7,13.1z"/>
					<path id="Caminho_44" class="st2" d="M138.4,21.4c-2.1,0-3.4-0.9-3.3-3.1h1.8c0,0.6,0,1.8,1.6,1.8c0.9,0,1.7-0.5,1.7-1.5
						c0-1.7-4.8-1.7-4.8-4.6c0-1,0.6-2.6,3.3-2.6c1.7,0,3.2,0.8,3,2.7H140c0.1-0.7-0.4-1.4-1.1-1.5c-0.1,0-0.2,0-0.4,0
						c-0.7-0.1-1.4,0.4-1.5,1.1c0,0.1,0,0.1,0,0.2c0,1.7,4.8,1.7,4.8,4.6C141.8,20.6,140.3,21.4,138.4,21.4"/>
					<path id="Caminho_45" class="st2" d="M143.5,7.5h1.7v1.7h-1.7V7.5z M145.2,21.2h-1.6v-9.6h1.6V21.2z"/>
					<path id="Caminho_46" class="st2" d="M148.1,11.6V9.8l1.6-0.7v2.5h2.1v1.2h-2.1v5.9c0,0.6,0,1.4,1.4,1.4c0.1,0,0.4,0,0.7-0.1
						v1.2c-0.5,0-1,0.2-1.5,0.2c-1.5,0-2.1-0.6-2.1-1.7v-6.8h-1.6v-1.2H148.1z"/>
					<path id="Caminho_47" class="st2" d="M156.8,19.5L156.8,19.5l2.3-7.8h1.7l-4.4,13.2h-1.6l1.1-3.6l-3.2-9.6h1.8L156.8,19.5z"/>
				</g>
			</g>
		</g>
	</g>
</g>
</svg>
