<?xml version="1.0" encoding="utf-8"?>
<!-- Generator: Adobe Illustrator 23.1.1, SVG Export Plug-In . SVG Version: 6.00 Build 0)  -->
<svg version="1.1" id="Camada_1" xmlns="http://www.w3.org/2000/svg" xmlns:xlink="http://www.w3.org/1999/xlink" x="0px" y="0px"
	 viewBox="0 0 100 100" style="enable-background:new 0 0 100 100;" xml:space="preserve">
<style type="text/css">
	.st0{fill:#FFFFFF;}
	.st1{clip-path:url(#SVGID_2_);}
</style>
<g id="Grupo_65" transform="translate(-253 -843)">
	<g id="Grupo_64" transform="translate(-1152 639)">
		<g id="Grupo_8" transform="translate(1405 204.278)">
			<rect id="Retângulo_22" x="9.1" y="20.1" class="st0" width="45.6" height="3.3"/>
			<path id="Caminho_14" class="st0" d="M31,66.1l-0.8-3.2l13.2-3.3v-4.9h3.3v7.4L31,66.1z"/>
			<path id="Caminho_15" class="st0" d="M68.8,66.1l-15.7-4v-7.5h3.3v4.9l13.2,3.3L68.8,66.1z"/>
			<rect id="Retângulo_23" x="38.5" y="40" class="st0" width="3.3" height="4.5"/>
			<g id="Grupo_7">
				<g>
					<g>
						<defs>
							<rect id="SVGID_1_" x="7.5" y="6.8" width="85" height="85"/>
						</defs>
						<clipPath id="SVGID_2_">
							<use xlink:href="#SVGID_1_"  style="overflow:visible;"/>
						</clipPath>
						<g id="Grupo_6" class="st1">
							<path id="Caminho_16" class="st0" d="M49.9,57.6c-6.3,0-11.4-5.1-11.4-11.4v-3.3h3.3v3.3c0,4.5,3.6,8.1,8.1,8.1
								s8.1-3.6,8.1-8.1v-4.9c0-4.5-3.6-8.1-8.1-8.1c-3.8,0.1-7.5-0.9-10.9-2.6c-0.3,0.8-0.5,1.7-0.5,2.6c0,2,0.6,6.5,6.5,6.5V43
								c-7.2,0-9.8-5.3-9.8-9.8c-0.1-2.2,0.7-4.4,2.1-6l1-1l1.1,0.9c0,0,3.8,2.9,10.4,2.9c6.3,0,11.4,5.1,11.4,11.4v4.9
								C61.3,52.5,56.2,57.6,49.9,57.6"/>
							<path id="Caminho_17" class="st0" d="M85.7,91.8H14c-3.6,0-6.5-2.9-6.5-6.5V13.6c0-3.6,2.9-6.5,6.5-6.5h71.7
								c3.6,0,6.5,2.9,6.5,6.5v71.7C92.2,88.9,89.3,91.8,85.7,91.8 M14,10.4c-1.8,0-3.3,1.5-3.3,3.3v71.7c0,1.8,1.5,3.3,3.3,3.3
								h71.7c1.8,0,3.3-1.5,3.3-3.3V13.6c0-1.8-1.5-3.3-3.3-3.3L14,10.4z"/>
							<path id="Caminho_18" class="st0" d="M69.4,85.3H30.3c-2.7,0-4.9-2.2-4.9-4.9v-6.5c0-2.7,2.2-4.9,4.9-4.9h39.1
								c2.7,0,4.9,2.2,4.9,4.9v6.5C74.3,83.1,72.1,85.3,69.4,85.3 M30.3,72.3c-0.9,0-1.6,0.7-1.6,1.6v6.5c0,0.9,0.7,1.6,1.6,1.6
								h39.1c0.9,0,1.6-0.7,1.6-1.6v-6.5c0-0.9-0.7-1.6-1.6-1.6H30.3z"/>
							<rect id="Retângulo_24" x="33.6" y="75.5" class="st0" width="3.3" height="3.3"/>
							<rect id="Retângulo_25" x="40.1" y="75.5" class="st0" width="27.7" height="3.3"/>
							<rect id="Retângulo_26" x="58" y="20.1" class="st0" width="3.3" height="3.3"/>
							<rect id="Retângulo_27" x="64.5" y="20.1" class="st0" width="26.1" height="3.3"/>
							<path id="Caminho_19" class="st0" d="M49.9,65.8c-4.2,0-6.3-4-6.3-4.2l2.9-1.5c0,0,1.2,2.4,3.4,2.4s3.4-2.3,3.4-2.4l2.9,1.5
								C56.1,61.8,54.1,65.8,49.9,65.8"/>
							<rect id="Retângulo_28" x="17.3" y="33.2" class="st0" width="3.3" height="11.4"/>
							<rect id="Retângulo_29" x="17.3" y="47.8" class="st0" width="3.3" height="3.3"/>
							<rect id="Retângulo_30" x="79.2" y="38.1" class="st0" width="3.3" height="11.4"/>
							<rect id="Retângulo_31" x="79.2" y="52.7" class="st0" width="3.3" height="3.3"/>
							<rect id="Retângulo_32" x="67.8" y="13.6" class="st0" width="3.3" height="3.3"/>
							<rect id="Retângulo_33" x="74.3" y="13.6" class="st0" width="3.3" height="3.3"/>
							<rect id="Retângulo_34" x="80.8" y="13.6" class="st0" width="3.3" height="3.3"/>
						</g>
					</g>
				</g>
			</g>
		</g>
	</g>
</g>
</svg>
