<?xml version="1.0" encoding="utf-8"?>
<!-- Generator: Adobe Illustrator 23.1.1, SVG Export Plug-In . SVG Version: 6.00 Build 0)  -->
<svg version="1.1" id="Camada_1" xmlns="http://www.w3.org/2000/svg" xmlns:xlink="http://www.w3.org/1999/xlink" x="0px" y="0px"
	 viewBox="0 0 100 100" style="enable-background:new 0 0 100 100;" xml:space="preserve">
<style type="text/css">
	.st0{clip-path:url(#SVGID_2_);}
	.st1{fill:#FFFFFF;}
</style>
<g>
	<g>
		<defs>
			<rect id="SVGID_1_" x="7.5" y="9.6" width="85" height="80.1"/>
		</defs>
		<clipPath id="SVGID_2_">
			<use xlink:href="#SVGID_1_"  style="overflow:visible;"/>
		</clipPath>
		<g id="Grupo_1" transform="translate(0 0)" class="st0">
			<path id="Caminho_1" class="st1" d="M27,64.2L25.1,62c1.7-1.4,3.7-2.3,5.9-2.7l9.1-1.7c1.1-0.2,1.9-1,2.3-2l1.7-5.5l2.8,0.9
				l-1.7,5.5c-0.6,2.1-2.4,3.6-4.5,4l-9.2,1.6C29.9,62.4,28.3,63.2,27,64.2"/>
			<path id="Caminho_2" class="st1" d="M72.4,63.8c-1.2-0.8-2.5-1.4-4-1.7l-9.1-1.7c-2.1-0.4-3.9-1.9-4.5-4l-1.7-5.5l2.8-0.9
				l1.7,5.5c0.3,1,1.2,1.8,2.3,2l9.1,1.7c1.9,0.3,3.6,1.1,5.2,2.2L72.4,63.8z"/>
			<path id="Caminho_3" class="st1" d="M50,53.1c-7.2,0-13.1-7.5-13.1-16.8v-2.2h2.9v2.2c0,7.7,4.6,13.9,10.2,13.9
				S60.2,44,60.2,36.3v-5.5l0.2-0.4c0.7-1.1,1.2-2.4,1.2-3.7c0-4.8-5.2-8.7-11.7-8.7h-2.6c-3.5,0.1-6.9-1.1-9.7-3.3
				c-0.5,2-0.8,4.1-0.9,6.2c0,5.6,2.9,8.8,8,8.8h0.7v2.9h-0.7c-6.8,0-11-4.5-11-11.7c0.1-3.1,0.6-6.2,1.5-9.2l0.6-2.2l1.7,1.5
				c3.1,2.7,5.4,4,9.6,4h2.6c8.1,0,14.6,5.2,14.6,11.6c-0.1,1.7-0.6,3.4-1.5,4.8v4.7C63.2,45.6,57.3,53.1,50,53.1"/>
			<rect id="Retângulo_1" x="36.9" y="28.9" class="st1" width="2.9" height="6.7"/>
			<rect id="Retângulo_2" x="13.5" y="41.4" class="st1" width="5.8" height="2.9"/>
			
				<rect id="Retângulo_3" x="19.4" y="26.5" transform="matrix(0.7071 -0.7071 0.7071 0.7071 -14.9615 23.478)" class="st1" width="2.9" height="6.5"/>
			
				<rect id="Retângulo_4" x="17.6" y="54.6" transform="matrix(0.7071 -0.7071 0.7071 0.7071 -33.5139 31.1224)" class="st1" width="6.4" height="2.9"/>
			<rect id="Retângulo_5" x="76.3" y="41.4" class="st1" width="5.8" height="2.9"/>
			
				<rect id="Retângulo_6" x="71.6" y="28.2" transform="matrix(0.7071 -0.7071 0.7071 0.7071 0.9466 61.6606)" class="st1" width="6.6" height="2.9"/>
			
				<rect id="Retângulo_7" x="73.4" y="52.8" transform="matrix(0.7071 -0.7071 0.7071 0.7071 -17.6643 69.3161)" class="st1" width="2.9" height="6.3"/>
			<path id="Caminho_4" class="st1" d="M60.7,89.8L50,82.7l-10.7,7.1l1.8-12.7l-7.3-7.3L44.6,68L50,57.2l5.4,10.7l10.8,1.8L58.9,77
				L60.7,89.8z M50,79.1l6.9,4.6L55.8,76l4.4-4.3l-6.7-1.1l-3.4-6.8l-3.4,6.8L40,71.7l4.4,4.4l-1.1,7.7L50,79.1z"/>
			<path id="Caminho_5" class="st1" d="M29.5,89.8L20.8,84l-8.7,5.8l1.5-10.5l-6-6l8.9-1.5l4.4-8.8l4.4,8.8l8.9,1.5l-6,6L29.5,89.8z
				 M20.8,80.4l4.9,3.3l-0.8-5.4l3.1-3.1l-4.8-0.8l-2.4-4.9l-2.4,4.9l-4.8,0.8l3.1,3.1l-0.8,5.4L20.8,80.4z"/>
			<path id="Caminho_6" class="st1" d="M87.9,89.8L79.2,84l-8.7,5.8L72,79.3l-6-6l8.9-1.5l4.4-8.8l4.4,8.8l8.9,1.5l-6,6L87.9,89.8z
				 M79.2,80.4l4.9,3.3l-0.8-5.4l3.1-3.1l-4.8-0.8l-2.4-4.9l-2.4,4.9L72,75.2l3.1,3.1l-0.8,5.4L79.2,80.4z"/>
		</g>
	</g>
</g>
</svg>
