<?xml version="1.0" encoding="utf-8"?>
<!-- Generator: Adobe Illustrator 23.1.1, SVG Export Plug-In . SVG Version: 6.00 Build 0)  -->
<svg version="1.1" id="Camada_1" xmlns="http://www.w3.org/2000/svg" xmlns:xlink="http://www.w3.org/1999/xlink" x="0px" y="0px"
	 viewBox="0 0 100 100" style="enable-background:new 0 0 100 100;" xml:space="preserve">
<style type="text/css">
	.st0{fill:#FFFFFF;}
	.st1{clip-path:url(#SVGID_2_);}
</style>
<g id="Grupo_11" transform="translate(-0.332 0.21)">
	<rect id="Retângulo_36" x="81.4" y="29.4" class="st0" width="3" height="8"/>
	<rect id="Retângulo_37" x="81.4" y="40.4" class="st0" width="3" height="3"/>
	<rect id="Retângulo_38" x="23.4" y="59.4" class="st0" width="3" height="3"/>
	<rect id="Retângulo_39" x="23.4" y="49.4" class="st0" width="3" height="7"/>
	<path id="Caminho_20" class="st0" d="M53.9,55.4l-19.6-9l1.2-2.7l18.4,8.5L69.6,45l-15.7-8.5l-9.5,5.1L42.9,39l10.9-5.9l22.3,12
		L53.9,55.4z"/>
	
		<rect id="Retângulo_40" x="45" y="42.8" transform="matrix(0.8808 -0.4734 0.4734 0.8808 -15.3065 27.6411)" class="st0" width="4.6" height="2.9"/>
	
		<rect id="Retângulo_41" x="52.5" y="39.2" transform="matrix(0.881 -0.473 0.473 0.881 -12.8388 30.3074)" class="st0" width="2.7" height="2.9"/>
	<g id="Grupo_10">
		<g>
			<defs>
				<rect id="SVGID_1_" x="10.4" y="5.4" width="80" height="88"/>
			</defs>
			<clipPath id="SVGID_2_">
				<use xlink:href="#SVGID_1_"  style="overflow:visible;"/>
			</clipPath>
			<g id="Grupo_9" class="st1">
				<path id="Caminho_21" class="st0" d="M65.5,64H42.2c-1.6,0-2.9-1.3-2.9-2.9V47.8h2.9v13.4l23.4,0l0-13.4h2.9v13.4
					C68.5,62.7,67.2,64,65.5,64"/>
				<rect id="Retângulo_42" x="64.4" y="8.4" class="st0" width="3" height="3"/>
				<rect id="Retângulo_43" x="70.4" y="11.4" class="st0" width="2" height="3"/>
				<rect id="Retângulo_44" x="55.4" y="17.4" class="st0" width="3" height="3"/>
				<rect id="Retângulo_45" x="72.4" y="17.4" class="st0" width="3" height="3"/>
				<rect id="Retângulo_46" x="58.4" y="11.4" class="st0" width="3" height="3"/>
				<rect id="Retângulo_47" x="20.4" y="5.4" class="st0" width="3" height="3"/>
				<rect id="Retângulo_48" x="26.4" y="8.4" class="st0" width="3" height="3"/>
				<rect id="Retângulo_49" x="11.4" y="14.4" class="st0" width="3" height="3"/>
				<rect id="Retângulo_50" x="29.4" y="14.4" class="st0" width="3" height="3"/>
				<rect id="Retângulo_51" x="14.4" y="20.4" class="st0" width="3" height="3"/>
				<rect id="Retângulo_52" x="14.4" y="8.4" class="st0" width="3" height="3"/>
				<rect id="Retângulo_53" x="10.4" y="81.4" class="st0" width="3" height="3"/>
				<rect id="Retângulo_54" x="27.4" y="81.4" class="st0" width="3" height="3"/>
				<rect id="Retângulo_55" x="18.4" y="90.4" class="st0" width="3" height="3"/>
				<rect id="Retângulo_56" x="13.4" y="87.4" class="st0" width="3" height="3"/>
				<rect id="Retângulo_57" x="24.4" y="87.4" class="st0" width="3" height="3"/>
				<rect id="Retângulo_58" x="13.4" y="75.4" class="st0" width="3" height="3"/>
				<path id="Caminho_22" class="st0" d="M83.1,78.7H24.6c-4,0-7.3-3.3-7.3-7.3V30.4c0-4,3.3-7.3,7.3-7.3h58.4c4,0,7.3,3.3,7.3,7.3
					v40.9C90.4,75.4,87.1,78.6,83.1,78.7 M24.6,26.1c-2.4,0-4.4,2-4.4,4.4v40.9c0,2.4,2,4.4,4.4,4.4h58.4c2.4,0,4.4-2,4.4-4.4V30.4
					c0-2.4-2-4.4-4.4-4.4L24.6,26.1z"/>
				
					<rect id="Retângulo_59" x="37.4" y="81.6" transform="matrix(0.3681 -0.9298 0.9298 0.3681 -49.5951 93.0923)" class="st0" width="12.6" height="2.9"/>
				
					<rect id="Retângulo_60" x="62.5" y="76.8" transform="matrix(0.9432 -0.3321 0.3321 0.9432 -23.941 25.9676)" class="st0" width="2.9" height="12.4"/>
				<rect id="Retângulo_61" x="33.4" y="87.4" class="st0" width="42" height="3"/>
				<rect id="Retângulo_62" x="18.4" y="67.4" class="st0" width="71" height="2"/>
				<path id="Caminho_23" class="st0" d="M36.3,55.3h-2.9V44.2l11-5.9l1.4,2.6l-9.5,5.1L36.3,55.3z"/>
			</g>
		</g>
	</g>
</g>
</svg>
