<?xml version="1.0" encoding="utf-8"?>
<!-- Generator: Adobe Illustrator 23.1.1, SVG Export Plug-In . SVG Version: 6.00 Build 0)  -->
<svg version="1.1" id="Camada_1" xmlns="http://www.w3.org/2000/svg" xmlns:xlink="http://www.w3.org/1999/xlink" x="0px" y="0px"
	 viewBox="0 0 100 100" style="enable-background:new 0 0 100 100;" xml:space="preserve">
<style type="text/css">
	.st0{fill:#FFFFFF;}
	.st1{clip-path:url(#SVGID_2_);}
</style>
<path id="Caminho_7" class="st0" d="M10.7,71.7l14.1-55h47.4L89,82.4H24.2L10.7,71.7z M22.5,13.8l-15.1,59l15.7,12.6h69.6L74.5,13.8
	H22.5z"/>
<path id="Caminho_8" class="st0" d="M25.1,83.9h-2.9V73.7H9v-2.9h16.1V83.9z"/>
<rect id="Retângulo_9" x="23.7" y="76.6" class="st0" width="36.5" height="2.9"/>
<rect id="Retângulo_10" x="63.1" y="76.6" class="st0" width="2.9" height="2.9"/>
<path id="Caminho_9" class="st0" d="M83.9,79.5h-15v-2.9h11.3L76,58.3l2.8-0.7L83.9,79.5z"/>
<path id="Caminho_10" class="st0" d="M75.2,54.6l-7.4-32h-12v-3h14.3L78,53.9L75.2,54.6z"/>
<rect id="Retângulo_11" x="48.5" y="19.6" class="st0" width="2.9" height="2.9"/>
<rect id="Retângulo_12" x="42.7" y="19.6" class="st0" width="2.9" height="2.9"/>
<path id="Caminho_11" class="st0" d="M17.4,72.6l-2.8-0.7l12.3-52.3h12.8v2.9H29.2L17.4,72.6z"/>
<g id="Grupo_4">
	<g>
		<g>
			<defs>
				<rect id="SVGID_1_" x="7.4" y="13.8" width="85.3" height="71.6"/>
			</defs>
			<clipPath id="SVGID_2_">
				<use xlink:href="#SVGID_1_"  style="overflow:visible;"/>
			</clipPath>
			<g id="Grupo_3" class="st1">
				<path id="Caminho_12" class="st0" d="M36.8,45.9c-4,0-7.3-3.3-7.3-7.3s3.3-7.3,7.3-7.3s7.3,3.3,7.3,7.3
					C44.1,42.7,40.8,45.9,36.8,45.9 M36.8,34.2c-2.4,0-4.4,2-4.4,4.4c0,2.4,2,4.4,4.4,4.4c2.4,0,4.4-2,4.4-4.4l0,0
					C41.2,36.2,39.2,34.3,36.8,34.2"/>
				<rect id="Retângulo_13" x="54.3" y="60.5" class="st0" width="4.4" height="2.9"/>
				<rect id="Retângulo_14" x="45.6" y="60.5" class="st0" width="5.8" height="2.9"/>
				<rect id="Retângulo_15" x="39.7" y="60.5" class="st0" width="2.9" height="2.9"/>
				<path id="Caminho_13" class="st0" d="M36.8,63.5c-4,0-7.3-3.3-7.3-7.3s3.3-7.3,7.3-7.3h24.8c2.4,0,4.4-2,4.4-4.4
					c0-2.4-2-4.4-4.4-4.4l0,0h-2.9v-2.9h2.9c4,0,7.3,3.3,7.3,7.3s-3.2,7.3-7.3,7.3H36.8c-2.4,0-4.4,2-4.4,4.4s2,4.4,4.4,4.4V63.5z"
					/>
				<rect id="Retângulo_16" x="52.9" y="37.2" class="st0" width="2.9" height="2.9"/>
				<rect id="Retângulo_17" x="47" y="37.2" class="st0" width="2.9" height="2.9"/>
				<rect id="Retângulo_18" x="35.3" y="37.2" class="st0" width="2.9" height="2.9"/>
				
					<rect id="Retângulo_19" x="60.6" y="60.5" transform="matrix(0.7071 -0.7071 0.7071 0.7071 -24.5189 64.7932)" class="st0" width="10.8" height="2.9"/>
				
					<rect id="Retângulo_20" x="64.6" y="56.6" transform="matrix(0.7071 -0.7071 0.7071 0.7071 -24.4973 64.8427)" class="st0" width="2.9" height="10.8"/>
			</g>
		</g>
	</g>
</g>
</svg>
