<?xml version="1.0" encoding="utf-8"?>
<!-- Generator: Adobe Illustrator 23.1.1, SVG Export Plug-In . SVG Version: 6.00 Build 0)  -->
<svg version="1.1" id="Camada_1" xmlns="http://www.w3.org/2000/svg" xmlns:xlink="http://www.w3.org/1999/xlink" x="0px" y="0px"
	 viewBox="0 0 54 82" style="enable-background:new 0 0 54 82;" xml:space="preserve">
<style type="text/css">
	.st0{fill:#FF9900;}
	.st1{clip-path:url(#SVGID_2_);}
	.st2{fill:none;stroke:#FFFFFF;stroke-width:2.639;stroke-linecap:round;stroke-linejoin:round;}
	.st3{fill:#FFFFFF;}
</style>
<g id="Mouse" transform="translate(-594 -542)">
	<rect id="Retângulo_67" x="594" y="542" class="st0" width="54" height="82"/>
	<g id="Grupo_15" transform="translate(608 552)">
		<g>
			<defs>
				<rect id="SVGID_1_" width="25.3" height="62.6"/>
			</defs>
			<clipPath id="SVGID_2_">
				<use xlink:href="#SVGID_1_"  style="overflow:visible;"/>
			</clipPath>
			<g id="Grupo_de_máscara_15" transform="translate(0 0)" class="st1">
				<path id="Caminho_27" class="st2" d="M12.6,48.6L12.6,48.6c-6.5,0-11.7-5.2-11.7-11.7V22c0-4.4,3.6-8,8-8h7.3c4.4,0,8,3.6,8,8
					l0,0v14.9C24.4,43.4,19.1,48.6,12.6,48.6z"/>
				<line id="Linha_1" class="st2" x1="12.6" y1="19.8" x2="12.6" y2="24.2"/>
				<path id="Caminho_28" class="st3" d="M16.6,56.3H8.7c-0.2,0-0.4,0.2-0.4,0.4c0,0.1,0,0.2,0.1,0.2l3.9,5.5
					c0.1,0.2,0.4,0.2,0.6,0.1c0,0,0.1-0.1,0.1-0.1l3.9-5.5c0.1-0.2,0.1-0.4-0.1-0.6C16.7,56.3,16.7,56.3,16.6,56.3"/>
				<path id="Caminho_29" class="st3" d="M12.6,0.8l3.5,4.9h-7L12.6,0.8 M12.6,0c-0.1,0-0.3,0.1-0.3,0.2L8.4,5.7
					C8.3,5.9,8.3,6.1,8.5,6.2c0.1,0.1,0.2,0.1,0.2,0.1h7.8c0.2,0,0.4-0.2,0.4-0.4c0-0.1,0-0.2-0.1-0.2L13,0.2
					C12.9,0.1,12.8,0,12.6,0"/>
			</g>
		</g>
	</g>
</g>
</svg>
