<?xml version="1.0" encoding="utf-8"?>
<!-- Generator: Adobe Illustrator 23.1.1, SVG Export Plug-In . SVG Version: 6.00 Build 0)  -->
<svg version="1.1" id="Camada_1" xmlns="http://www.w3.org/2000/svg" xmlns:xlink="http://www.w3.org/1999/xlink" x="0px" y="0px"
	 viewBox="0 0 26.1 37.3" style="enable-background:new 0 0 26.1 37.3;" xml:space="preserve">
<style type="text/css">
	.st0{fill:#FF3300;}
	.st1{fill:none;stroke:#FFFFFF;stroke-width:2.639;stroke-linecap:round;stroke-linejoin:round;}
</style>
<path id="Retângulo_88" class="st0" d="M11.3,1.3L11.3,1.3L11.3,1.3v7c0,6.1-4.9,11-11,11l0,0l0,0v-7C0.3,6.2,5.2,1.3,11.3,1.3z"/>
<g id="Grupo_22" transform="translate(-424.623 -1660.668)">
	<path id="Caminho_57" class="st1" d="M437.6,1696.6L437.6,1696.6c-6.5,0-11.7-5.2-11.7-11.7V1670c0-4.4,3.6-8,8-8h7.3
		c4.4,0,8,3.6,8,8l0,0v14.9C449.4,1691.4,444.1,1696.6,437.6,1696.6z"/>
	<line id="Linha_2" class="st1" x1="437.6" y1="1667.8" x2="437.6" y2="1672.2"/>
</g>
</svg>
